<svg width="101" height="793" viewBox="0 0 101 793" fill="none" xmlns="http://www.w3.org/2000/svg">
<path d="M37.2774 -219C37.2774 -219 40.5522 -189.864 37.2774 -171.568C35.619 -162.302 31.3551 -150.646 27.81 -141.939C24.3748 -133.502 20.8037 -125.121 17.68 -116.564L13.339 -104.672C6.14446 -84.9627 0.622036 -64.2249 2.48873 -43.3267V-43.3267C3.39126 -33.2224 6.41828 -20.6361 9.31568 -10.2977C13.0056 2.86885 19.3524 15.0759 27.1298 26.3225V26.3225C33.8717 36.0716 41.7981 44.9266 50.2167 53.2708C55.9998 59.0028 62.5269 65.8461 67.0964 71.7394C67.9107 72.7896 68.7412 73.9108 69.5776 75.08C81.6263 91.9229 88.4414 111.803 93.2964 131.935V131.935C97.0246 147.394 99.3708 163.206 98.628 179.09C98.0862 190.677 96.8104 204.336 93.9334 214.913C92.1719 221.389 89.2005 228.951 86.1299 235.957C79.3429 251.442 69.5891 265.371 58.7544 278.35L50.1897 288.609C37.045 304.356 26.7645 322.286 19.8159 341.584V341.584C12.9548 360.64 9.44645 380.74 9.44645 400.993V416.514C9.44645 447.935 19.2302 478.01 30.3197 507.409V507.409V507.409C44.1457 544.063 74.3194 573.138 82.5404 611.44C83.9581 618.046 85.1661 624.509 85.9817 630.381C87.6925 642.697 88.3455 657.221 88.4311 671.411C88.679 712.486 79.6474 752.888 67.0964 792V792" stroke="#90FFBC" stroke-width="3"/>
</svg>
