<svg width="53" height="339" viewBox="0 0 53 339" fill="none" xmlns="http://www.w3.org/2000/svg">
<path d="M19.7458 -237C19.7458 -237 21.3931 -220.415 19.7458 -210C18.921 -204.785 16.815 -198.24 15.0439 -193.302C13.2837 -188.395 11.4445 -183.516 9.84398 -178.554L7.77482 -172.14C4.10465 -160.762 1.30512 -148.918 2.24585 -137V-137C2.7148 -131.059 4.32397 -123.61 5.82374 -117.622C7.60126 -110.524 10.6761 -103.841 14.4915 -97.598V-97.598C17.9829 -91.8848 22.1614 -86.6296 26.604 -81.6202C29.4239 -78.4407 32.5388 -74.7211 34.7458 -71.5C35.0446 -71.0639 35.3478 -70.6063 35.6533 -70.1323C42.0742 -60.1687 45.4948 -48.6397 47.9654 -37.0467V-37.0467C49.8152 -28.3667 50.9731 -19.5322 50.6185 -10.6644C50.3525 -4.01162 49.7131 3.89585 48.2458 10C47.3441 13.7515 45.8121 18.1431 44.2386 22.1899C40.878 30.8324 35.9744 38.7569 30.4695 46.219L26.8453 51.1318C19.8266 60.6461 14.417 71.2478 10.8322 82.5143V82.5143C7.46148 93.108 5.74584 104.158 5.74584 115.275V125.335C5.74584 142.895 10.6929 159.841 16.2458 176.5V176.5V176.5C23.0029 196.771 38.2044 213.552 42.2856 234.526C43.0975 238.699 43.7923 242.805 44.2458 246.5C45.119 253.613 45.4444 262.02 45.4797 270.209C45.5796 293.365 41.0635 316.222 34.7458 338.5V338.5" stroke="#00FFC2" stroke-width="3"/>
</svg>
