<svg width="63" height="488" viewBox="0 0 63 488" fill="none" xmlns="http://www.w3.org/2000/svg">
<path d="M23.4574 -88C23.4574 -88 25.4493 -71.4291 23.4574 -61.0235C22.4415 -55.7164 19.8185 -49.0304 17.6533 -44.0674C15.5885 -39.3346 13.4483 -34.6352 11.5705 -29.8251L8.84252 -22.8373C4.50556 -11.7279 1.16318 0.0412552 2.29727 11.9131V11.9131C2.8351 17.5433 4.61324 24.5284 6.34241 30.3388C8.64428 38.0736 12.5916 45.1794 17.3903 51.6678V51.6678C21.421 57.1179 26.1148 62.0347 31.0932 66.6353C34.6677 69.9386 38.7534 73.9297 41.5947 77.3562C42.1689 78.0486 42.7564 78.7954 43.3472 79.5759C50.4314 88.9344 54.5687 100.107 57.5 111.473V111.473C59.7873 120.341 61.2318 129.44 60.7649 138.586C60.4304 145.138 59.6527 152.823 57.9183 158.785C56.8579 162.43 55.0769 166.68 53.2298 170.63C49.063 179.54 43.1296 187.462 36.5789 194.799L30.886 201.176C23.176 209.812 17.0937 219.773 12.9336 230.577V230.577C8.70033 241.57 6.52929 253.25 6.52929 265.031V273.074C6.52929 291.154 12.4612 308.373 19.2254 325.141V325.141V325.141C27.782 346.352 46.1236 362.74 51.1577 385.051C51.9469 388.549 52.6183 391.961 53.0816 395.08C54.1124 402.018 54.5118 410.189 54.5699 418.186C54.7407 441.694 49.2257 464.764 41.5947 487V487" stroke="#007019" stroke-width="3"/>
</svg>
