<svg width="101" height="878" viewBox="0 0 101 878" fill="none" xmlns="http://www.w3.org/2000/svg">
<path d="M37.2774 -134C37.2774 -134 40.5522 -104.864 37.2774 -86.5682C35.619 -77.3025 31.3551 -65.6459 27.81 -56.939C24.3748 -48.5019 20.8037 -40.1213 17.68 -31.564L13.339 -19.6721C6.14446 0.0372531 0.622036 20.7751 2.48873 41.6733V41.6733C3.39126 51.7776 6.41828 64.3639 9.31568 74.7023C13.0056 87.8689 19.3524 100.076 27.1298 111.323V111.323C33.8717 121.072 41.7981 129.927 50.2167 138.271C55.9998 144.003 62.5269 150.846 67.0964 156.739C67.9107 157.79 68.7412 158.911 69.5776 160.08C81.6263 176.923 88.4414 196.803 93.2964 216.935V216.935C97.0246 232.394 99.3708 248.206 98.628 264.09C98.0862 275.677 96.8104 289.336 93.9334 299.913C92.1719 306.389 89.2005 313.951 86.1299 320.957C79.3429 336.442 69.5891 350.371 58.7544 363.35L50.1897 373.609C37.045 389.356 26.7645 407.286 19.8159 426.584V426.584C12.9548 445.64 9.44645 465.74 9.44645 485.993V501.514C9.44645 532.935 19.2302 563.01 30.3197 592.409V592.409V592.409C44.1457 629.063 74.3194 658.138 82.5404 696.44C83.9581 703.046 85.1661 709.509 85.9817 715.381C87.6925 727.697 88.3455 742.221 88.4311 756.411C88.679 797.486 79.6474 837.888 67.0964 877V877" stroke="#007156" stroke-width="3"/>
</svg>
