<svg width="101" height="924" viewBox="0 0 101 924" fill="none" xmlns="http://www.w3.org/2000/svg">
<path d="M37.2774 -88C37.2774 -88 40.5522 -58.864 37.2774 -40.5682C35.619 -31.3025 31.3551 -19.6459 27.81 -10.939C24.3748 -2.50195 20.8037 5.8787 17.68 14.436L13.339 26.3279C6.14446 46.0373 0.622036 66.7751 2.48873 87.6733V87.6733C3.39126 97.7776 6.41828 110.364 9.31568 120.702C13.0056 133.869 19.3524 146.076 27.1298 157.323V157.323C33.8717 167.072 41.7981 175.927 50.2167 184.271C55.9998 190.003 62.5269 196.846 67.0964 202.739C67.9107 203.79 68.7412 204.911 69.5776 206.08C81.6263 222.923 88.4414 242.803 93.2964 262.935V262.935C97.0246 278.394 99.3708 294.206 98.628 310.09C98.0862 321.677 96.8104 335.336 93.9334 345.913C92.1719 352.389 89.2005 359.951 86.1299 366.957C79.3429 382.442 69.5891 396.371 58.7544 409.35L50.1897 419.609C37.045 435.356 26.7645 453.286 19.8159 472.584V472.584C12.9548 491.64 9.44645 511.74 9.44645 531.993V547.514C9.44645 578.935 19.2302 609.01 30.3197 638.409V638.409V638.409C44.1457 675.063 74.3194 704.138 82.5404 742.44C83.9581 749.046 85.1661 755.509 85.9817 761.381C87.6925 773.697 88.3455 788.221 88.4311 802.411C88.679 843.486 79.6474 883.888 67.0964 923V923" stroke="#00FF66" stroke-width="3"/>
</svg>
