<svg width="101" height="1010" viewBox="0 0 101 1010" fill="none" xmlns="http://www.w3.org/2000/svg">
<path d="M37.2774 -2C37.2774 -2 40.5522 27.136 37.2774 45.4318C35.619 54.6975 31.3551 66.3541 27.81 75.061C24.3748 83.4981 20.8037 91.8787 17.68 100.436L13.339 112.328C6.14446 132.037 0.622036 152.775 2.48873 173.673V173.673C3.39126 183.778 6.41828 196.364 9.31568 206.702C13.0056 219.869 19.3524 232.076 27.1298 243.323V243.323C33.8717 253.072 41.7981 261.927 50.2167 270.271C55.9998 276.003 62.5269 282.846 67.0964 288.739C67.9107 289.79 68.7412 290.911 69.5776 292.08C81.6263 308.923 88.4414 328.803 93.2964 348.935V348.935C97.0246 364.394 99.3708 380.206 98.628 396.09C98.0862 407.677 96.8104 421.336 93.9334 431.913C92.1719 438.389 89.2005 445.951 86.1299 452.957C79.3429 468.442 69.5891 482.371 58.7544 495.35L50.1897 505.609C37.045 521.356 26.7645 539.286 19.8159 558.584V558.584C12.9548 577.64 9.44645 597.74 9.44645 617.993V633.514C9.44645 664.935 19.2302 695.01 30.3197 724.409V724.409V724.409C44.1457 761.063 74.3194 790.138 82.5404 828.44C83.9581 835.046 85.1661 841.509 85.9817 847.381C87.6925 859.697 88.3455 874.221 88.4311 888.411C88.679 929.486 79.6474 969.888 67.0964 1009V1009" stroke="#03FFC2" stroke-width="3"/>
</svg>
