<svg width="53" height="433" viewBox="0 0 53 433" fill="none" xmlns="http://www.w3.org/2000/svg">
<path d="M19.7458 -143C19.7458 -143 21.3931 -126.415 19.7458 -116C18.921 -110.785 16.815 -104.24 15.0439 -99.3024C13.2837 -94.3951 11.4445 -89.5159 9.84398 -84.5543L7.77482 -78.1399C4.10465 -66.7624 1.30512 -54.9178 2.24585 -43V-43C2.7148 -37.0589 4.32397 -29.6104 5.82374 -23.6217C7.60126 -16.5238 10.6761 -9.84146 14.4915 -3.59797V-3.59797C17.9829 2.11523 22.1614 7.37043 26.604 12.3798C29.4239 15.5593 32.5388 19.2789 34.7458 22.5C35.0446 22.9361 35.3478 23.3937 35.6533 23.8677C42.0742 33.8313 45.4948 45.3603 47.9654 56.9533V56.9533C49.8152 65.6333 50.9731 74.4678 50.6185 83.3356C50.3525 89.9884 49.7131 97.8959 48.2458 104C47.3441 107.752 45.8121 112.143 44.2386 116.19C40.878 124.832 35.9744 132.757 30.4695 140.219L26.8453 145.132C19.8266 154.646 14.417 165.248 10.8322 176.514V176.514C7.46148 187.108 5.74584 198.158 5.74584 209.275V219.335C5.74584 236.895 10.6929 253.841 16.2458 270.5V270.5V270.5C23.0029 290.771 38.2044 307.552 42.2856 328.526C43.0975 332.699 43.7923 336.805 44.2458 340.5C45.119 347.613 45.4444 356.02 45.4797 364.209C45.5796 387.365 41.0635 410.222 34.7458 432.5V432.5" stroke="#A0FFB5" stroke-width="3"/>
</svg>
