<svg width="52" height="575" viewBox="0 0 52 575" fill="none" xmlns="http://www.w3.org/2000/svg">
<path d="M19.5 -1.5C19.5 -1.5 21.1473 15.0853 19.5 25.5C18.6751 30.7149 16.5691 37.2601 14.7981 42.1976C13.0378 47.1049 11.1987 51.9841 9.59813 56.9457L7.52897 63.3601C3.85881 74.7376 1.05927 86.5822 2 98.5V98.5C2.46895 104.441 4.07812 111.89 5.57789 117.878C7.35542 124.976 10.4302 131.659 14.2457 137.902V137.902C17.7371 143.615 21.9156 148.87 26.3582 153.88C29.178 157.059 32.2929 160.779 34.5 164C34.7988 164.436 35.102 164.894 35.4074 165.368C41.8284 175.331 45.2489 186.86 47.7195 198.453V198.453C49.5694 207.133 50.7272 215.968 50.3726 224.836C50.1066 231.488 49.4672 239.396 48 245.5C47.0983 249.252 45.5662 253.643 43.9927 257.69C40.6322 266.332 35.7285 274.257 30.2237 281.719L26.5995 286.632C19.5807 296.146 14.1711 306.748 10.5863 318.014V318.014C7.21563 328.608 5.49999 339.658 5.49999 350.775V360.835C5.49999 378.395 10.447 395.341 16 412V412V412C22.7571 432.271 37.9585 449.052 42.0398 470.026C42.8517 474.199 43.5464 478.305 44 482C44.8732 489.113 45.1985 497.52 45.2338 505.709C45.3337 528.865 40.8176 551.722 34.5 574V574" stroke="#00FF38" stroke-width="3"/>
</svg>
